<svg version="1.1" viewBox="0.0 0.0 745.0 462.0" fill="none" stroke="none" stroke-linecap="square" stroke-miterlimit="10" width="745" height="462" xmlns:xlink="http://www.w3.org/1999/xlink" xmlns="http://www.w3.org/2000/svg"><path fill="#ffffff" d="M0 0L745.0 0L745.0 462.0L0 462.0L0 0Z" fill-rule="nonzero"/><path fill="#c9daf8" d="M372.5 86.0C426.1981 86.0 476.97397 110.45238 510.45416 152.43523L441.47708 207.44261C424.73697 186.45119 399.34903 174.225 372.5 174.225Z" fill-rule="nonzero"/><path fill="#0c343d" d="M510.45416 152.43523C561.7819 216.79822 561.7819 308.10178 510.45416 372.46478C459.12637 436.8278 370.112 457.1447 295.94122 421.42596C221.77042 385.70718 182.1553 303.44553 200.47397 223.18619C218.79265 142.92683 290.17664 86.0 372.5 86.0L372.5 174.225C331.33832 174.225 295.64633 202.68842 286.487 242.81808C277.32764 282.94775 297.13522 324.07858 334.2206 341.938C371.306 359.79736 415.8132 349.6389 441.47708 317.4574C467.14096 285.27588 467.14096 239.62411 441.47708 207.44261Z" fill-rule="nonzero"/><path stroke="#ffffff" stroke-width="1.0" stroke-linejoin="round" stroke-linecap="round" d="M441.47708 207.44261C424.73697 186.45119 399.34903 174.225 372.5 174.225L372.5 86.0C426.1981 86.0 476.97397 110.45238 510.45416 152.43523" fill-rule="nonzero"/><path stroke="#ffffff" stroke-width="1.0" stroke-linejoin="round" stroke-linecap="round" d="M372.5 174.225C331.33832 174.225 295.64633 202.68842 286.487 242.81808C277.32764 282.94775 297.13522 324.07858 334.2206 341.938C371.306 359.79736 415.8132 349.6389 441.47708 317.4574C467.14096 285.27588 467.14096 239.62411 441.47708 207.44261L510.45416 152.43523C561.7819 216.79822 561.7819 308.10178 510.45416 372.46478C459.12637 436.8278 370.112 457.1447 295.94122 421.42596C221.77042 385.70718 182.1553 303.44553 200.47397 223.18619C218.79265 142.92683 290.17664 86.0 372.5 86.0" fill-rule="nonzero"/><path fill="#000000" d="M26.615625 404.8678L26.615625 408.14905L27.81875 408.14905Q28.5375 408.14905 28.85 408.4303Q29.1625 408.71155 29.1625 409.16467Q29.1625 409.60217 28.85 409.88342Q28.5375 410.16467 27.81875 410.16467L24.271875 410.16467Q23.553125 410.16467 23.240625 409.88342Q22.928125 409.60217 22.928125 409.16467Q22.928125 408.71155 23.240625 408.4303Q23.553125 408.14905 24.271875 408.14905L24.615625 408.14905L24.615625 399.1178L24.271875 399.1178Q23.553125 399.1178 23.240625 398.83655Q22.928125 398.5553 22.928125 398.10217Q22.928125 397.66467 23.240625 397.38342Q23.553125 397.10217 24.271875 397.10217L26.615625 397.10217L26.615625 397.78967Q27.31875 397.32092 28.06875 397.08655Q28.81875 396.85217 29.615625 396.85217Q31.6625 396.85217 33.1 398.2428Q34.553123 399.63342 34.553123 401.4303Q34.553123 403.41467 32.85 404.69592Q31.428125 405.77405 29.63125 405.77405Q28.865625 405.77405 28.115625 405.5553Q27.365625 405.32092 26.615625 404.8678ZM32.553123 401.4303Q32.553123 401.00842 32.225 400.3678Q31.896875 399.71155 31.19375 399.28967Q30.50625 398.85217 29.584375 398.85217Q28.084375 398.85217 27.209375 399.97717Q26.615625 400.7428 26.615625 401.46155Q26.615625 402.25842 27.459375 403.02405Q28.31875 403.77405 29.584375 403.77405Q30.85 403.77405 31.69375 403.02405Q32.553123 402.25842 32.553123 401.4303ZM40.69375 397.10217L40.69375 398.35217Q41.94375 397.44592 42.6625 397.14905Q43.396873 396.85217 44.0375 396.85217Q45.00625 396.85217 45.928123 397.57092Q46.553123 398.0553 46.553123 398.57092Q46.553123 398.9928 46.25625 399.28967Q45.959373 399.58655 45.5375 399.58655Q45.1625 399.58655 44.75625 399.22717Q44.35 398.85217 44.021873 398.85217Q43.6 398.85217 42.771873 399.38342Q41.94375 399.89905 40.69375 400.96155L40.69375 403.97717L43.5375 403.97717Q44.25625 403.97717 44.56875 404.25842Q44.88125 404.52405 44.88125 404.97717Q44.88125 405.41467 44.56875 405.69592Q44.25625 405.97717 43.5375 405.97717L37.490623 405.97717Q36.771873 405.97717 36.459373 405.69592Q36.1625 405.41467 36.1625 404.97717Q36.1625 404.52405 36.459373 404.25842Q36.771873 403.97717 37.490623 403.97717L38.678123 403.97717L38.678123 399.1178L37.959373 399.1178Q37.240623 399.1178 36.928123 398.83655Q36.63125 398.5553 36.63125 398.10217Q36.63125 397.66467 36.928123 397.38342Q37.240623 397.10217 37.959373 397.10217L40.69375 397.10217ZM58.303123 401.71155Q58.303123 402.8678 57.6625 403.94592Q57.021873 405.02405 55.75625 405.66467Q54.490623 406.3053 53.115623 406.3053Q51.75625 406.3053 50.50625 405.6803Q49.25625 405.03967 48.6 403.96155Q47.94375 402.8678 47.94375 401.69592Q47.94375 400.4928 48.6 399.33655Q49.271873 398.1803 50.50625 397.52405Q51.75625 396.85217 53.115623 396.85217Q54.490623 396.85217 55.740623 397.52405Q57.00625 398.19592 57.646873 399.35217Q58.303123 400.4928 58.303123 401.71155ZM56.303123 401.71155Q56.303123 400.75842 55.6 399.94592Q54.6625 398.85217 53.115623 398.85217Q51.75625 398.85217 50.85 399.72717Q49.94375 400.58655 49.94375 401.72717Q49.94375 402.66467 50.85 403.47717Q51.771873 404.28967 53.115623 404.28967Q54.459373 404.28967 55.38125 403.47717Q56.303123 402.66467 56.303123 401.71155Z" fill-rule="nonzero"/><path fill="#9e9e9e" d="M31.94375 425.58655Q32.709373 426.1803 33.084373 426.94592Q33.475 427.69592 33.475 428.60217Q33.475 429.60217 32.975 430.44592Q32.490623 431.28967 31.428125 431.78967Q30.38125 432.27405 29.1 432.27405Q27.803125 432.27405 26.771875 431.78967Q25.740625 431.28967 25.240625 430.44592Q24.75625 429.58655 24.75625 428.60217Q24.75625 427.69592 25.13125 426.94592Q25.521875 426.1803 26.2875 425.58655Q25.615625 424.96155 25.271875 424.25842Q24.94375 423.5553 24.94375 422.77405Q24.94375 421.22717 26.115625 420.13342Q27.2875 419.02405 29.115625 419.02405Q30.959375 419.02405 32.13125 420.13342Q33.303123 421.22717 33.303123 422.77405Q33.303123 423.5553 32.959373 424.25842Q32.615623 424.96155 31.94375 425.58655ZM31.240625 422.8053Q31.240625 422.07092 30.6625 421.5553Q30.084375 421.02405 29.1 421.02405Q28.1 421.02405 27.521875 421.5553Q26.94375 422.07092 26.94375 422.8053Q26.94375 423.5553 27.521875 424.08655Q28.1 424.60217 29.1 424.60217Q30.084375 424.60217 30.6625 424.08655Q31.240625 423.5553 31.240625 422.8053ZM31.475 428.69592Q31.475 427.89905 30.7875 427.25842Q30.115625 426.6178 29.115625 426.6178Q28.115625 426.6178 27.428125 427.25842Q26.75625 427.89905 26.75625 428.71155Q26.75625 429.33655 27.334375 429.8053Q27.928125 430.27405 29.115625 430.27405Q30.31875 430.27405 30.896875 429.8053Q31.475 429.33655 31.475 428.69592ZM39.4125 421.33655L39.4125 423.72717Q40.5375 423.3678 41.44375 423.3678Q43.2875 423.3678 44.50625 424.63342Q45.725 425.89905 45.725 427.88342Q45.725 429.9303 44.490623 431.10217Q43.25625 432.27405 40.709373 432.27405Q38.459373 432.27405 37.146873 431.41467Q36.396873 430.9303 36.396873 430.28967Q36.396873 429.89905 36.69375 429.60217Q36.990623 429.3053 37.396873 429.3053Q37.740623 429.3053 38.13125 429.63342Q38.5375 429.96155 38.975 430.08655Q39.6 430.27405 40.584373 430.27405Q42.396873 430.27405 43.053123 429.69592Q43.725 429.10217 43.725 427.89905Q43.725 426.72717 43.084373 426.0553Q42.44375 425.3678 41.44375 425.3678Q40.35 425.3678 38.975 426.07092Q38.6625 426.2428 38.428123 426.2428Q37.990623 426.2428 37.69375 425.9303Q37.4125 425.6178 37.4125 425.1178L37.4125 419.33655L43.5375 419.33655Q44.25625 419.33655 44.56875 419.6178Q44.88125 419.89905 44.88125 420.35217Q44.88125 420.78967 44.56875 421.07092Q44.25625 421.33655 43.5375 421.33655L39.4125 421.33655ZM54.63125 430.97717Q54.63125 431.53967 54.225 431.9303Q53.834373 432.3053 53.13125 432.3053Q52.428123 432.3053 52.021873 431.9303Q51.615623 431.53967 51.615623 430.97717Q51.615623 430.39905 52.021873 430.02405Q52.428123 429.64905 53.13125 429.64905Q53.834373 429.64905 54.225 430.02405Q54.63125 430.39905 54.63125 430.97717ZM67.1625 421.33655L62.584373 421.33655Q62.553123 421.9303 62.2875 422.19592Q62.021873 422.44592 61.584373 422.44592Q61.146873 422.44592 60.865623 422.14905Q60.584373 421.83655 60.584373 421.1178L60.584373 419.33655L69.27187 419.33655L69.27187 421.33655L66.0375 430.9928Q65.83437 431.60217 65.58437 431.8053Q65.33437 431.9928 64.975 431.9928Q64.55312 431.9928 64.25625 431.71155Q63.959373 431.41467 63.959373 431.02405Q63.959373 430.82092 64.11562 430.35217L67.1625 421.33655ZM78.64687 422.25842Q78.64687 423.4303 77.81875 424.25842Q76.99062 425.08655 75.81875 425.08655Q74.64687 425.08655 73.81875 424.25842Q72.99062 423.4303 72.99062 422.25842Q72.99062 421.08655 73.81875 420.25842Q74.64687 419.4303 75.81875 419.4303Q76.99062 419.4303 77.81875 420.25842Q78.64687 421.07092 78.64687 422.25842ZM77.4125 422.25842Q77.4125 421.60217 76.94375 421.13342Q76.475 420.66467 75.81875 420.66467Q75.14687 420.66467 74.67812 421.13342Q74.225 421.60217 74.225 422.25842Q74.225 422.91467 74.69375 423.38342Q75.1625 423.85217 75.81875 423.85217Q76.475 423.85217 76.94375 423.38342Q77.4125 422.91467 77.4125 422.25842ZM81.00625 425.2428L73.61562 427.63342Q73.35 427.71155 73.225 427.71155Q72.99062 427.71155 72.81875 427.53967Q72.64687 427.35217 72.64687 427.07092Q72.64687 426.85217 72.7875 426.69592Q72.88125 426.57092 73.24062 426.44592L80.61562 424.0553Q80.89687 423.96155 81.02187 423.96155Q81.25625 423.96155 81.42812 424.16467Q81.6 424.35217 81.6 424.6178Q81.6 424.82092 81.45937 424.9928Q81.36562 425.1178 81.00625 425.2428ZM81.17812 429.44592Q81.17812 430.6178 80.35 431.44592Q79.52187 432.27405 78.35 432.27405Q77.17812 432.27405 76.35 431.44592Q75.52187 430.60217 75.52187 429.44592Q75.52187 428.27405 76.35 427.44592Q77.17812 426.6178 78.35 426.6178Q79.52187 426.6178 80.35 427.44592Q81.17812 428.25842 81.17812 429.44592ZM79.94375 429.44592Q79.94375 428.78967 79.475 428.32092Q79.00625 427.85217 78.35 427.85217Q77.69375 427.85217 77.225 428.32092Q76.75625 428.78967 76.75625 429.44592Q76.75625 430.10217 77.225 430.57092Q77.69375 431.02405 78.35 431.02405Q79.00625 431.02405 79.475 430.57092Q79.94375 430.10217 79.94375 429.44592Z" fill-rule="nonzero"/><path stroke="#757575" stroke-width="1.0" stroke-linecap="butt" d="M23.1 413.47717L190.05 413.47717L299.76917 413.47717" fill-rule="nonzero"/><path fill="#9e9e9e" d="M301.76917 413.47717C301.76917 412.3726 300.87372 411.47717 299.76917 411.47717C298.66458 411.47717 297.76917 412.3726 297.76917 413.47717C297.76917 414.58173 298.66458 415.47717 299.76917 415.47717C300.87372 415.47717 301.76917 414.58173 301.76917 413.47717" fill-rule="nonzero"/><path fill="#000000" d="M665.41565 102.81347L665.41565 106.09472L666.6188 106.09472Q667.3375 106.09472 667.65 106.37597Q667.9625 106.65722 667.9625 107.110344Q667.9625 107.547844 667.65 107.829094Q667.3375 108.110344 666.6188 108.110344L663.0719 108.110344Q662.35315 108.110344 662.04065 107.829094Q661.72815 107.547844 661.72815 107.110344Q661.72815 106.65722 662.04065 106.37597Q662.35315 106.09472 663.0719 106.09472L663.41565 106.09472L663.41565 97.06347L663.0719 97.06347Q662.35315 97.06347 662.04065 96.78222Q661.72815 96.50097 661.72815 96.047844Q661.72815 95.610344 662.04065 95.329094Q662.35315 95.047844 663.0719 95.047844L665.41565 95.047844L665.41565 95.735344Q666.1188 95.266594 666.8688 95.03222Q667.6188 94.797844 668.41565 94.797844Q670.4625 94.797844 671.9 96.18847Q673.35315 97.579094 673.35315 99.37597Q673.35315 101.360344 671.65 102.641594Q670.22815 103.71972 668.4313 103.71972Q667.66565 103.71972 666.91565 103.50097Q666.16565 103.266594 665.41565 102.81347ZM671.35315 99.37597Q671.35315 98.954094 671.025 98.31347Q670.6969 97.65722 669.9938 97.235344Q669.3063 96.797844 668.3844 96.797844Q666.8844 96.797844 666.0094 97.922844Q665.41565 98.68847 665.41565 99.40722Q665.41565 100.204094 666.2594 100.96972Q667.1188 101.71972 668.3844 101.71972Q669.65 101.71972 670.4938 100.96972Q671.35315 100.204094 671.35315 99.37597ZM679.4938 95.047844L679.4938 96.297844Q680.7438 95.391594 681.4625 95.09472Q682.1969 94.797844 682.8375 94.797844Q683.8063 94.797844 684.72815 95.516594Q685.35315 96.00097 685.35315 96.516594Q685.35315 96.93847 685.0563 97.235344Q684.7594 97.53222 684.3375 97.53222Q683.9625 97.53222 683.5563 97.172844Q683.15 96.797844 682.8219 96.797844Q682.4 96.797844 681.5719 97.329094Q680.7438 97.84472 679.4938 98.90722L679.4938 101.922844L682.3375 101.922844Q683.0563 101.922844 683.3688 102.204094Q683.6813 102.46972 683.6813 102.922844Q683.6813 103.360344 683.3688 103.641594Q683.0563 103.922844 682.3375 103.922844L676.29065 103.922844Q675.5719 103.922844 675.2594 103.641594Q674.9625 103.360344 674.9625 102.922844Q674.9625 102.46972 675.2594 102.204094Q675.5719 101.922844 676.29065 101.922844L677.47815 101.922844L677.47815 97.06347L676.7594 97.06347Q676.04065 97.06347 675.72815 96.78222Q675.4313 96.50097 675.4313 96.047844Q675.4313 95.610344 675.72815 95.329094Q676.04065 95.047844 676.7594 95.047844L679.4938 95.047844ZM697.10315 99.65722Q697.10315 100.81347 696.4625 101.891594Q695.8219 102.96972 694.5563 103.610344Q693.29065 104.25097 691.91565 104.25097Q690.5563 104.25097 689.3063 103.62597Q688.0563 102.985344 687.4 101.90722Q686.7438 100.81347 686.7438 99.641594Q686.7438 98.43847 687.4 97.28222Q688.0719 96.12597 689.3063 95.46972Q690.5563 94.797844 691.91565 94.797844Q693.29065 94.797844 694.54065 95.46972Q695.8063 96.141594 696.4469 97.297844Q697.10315 98.43847 697.10315 99.65722ZM695.10315 99.65722Q695.10315 98.704094 694.4 97.891594Q693.4625 96.797844 691.91565 96.797844Q690.5563 96.797844 689.65 97.672844Q688.7438 98.53222 688.7438 99.672844Q688.7438 100.610344 689.65 101.422844Q690.5719 102.235344 691.91565 102.235344Q693.2594 102.235344 694.1813 101.422844Q695.10315 100.610344 695.10315 99.65722ZM703.41565 97.06347L703.41565 101.06347Q703.41565 101.71972 703.66565 101.922844Q704.0875 102.235344 705.1344 102.235344Q706.66565 102.235344 707.9625 101.59472Q708.4625 101.329094 708.7438 101.329094Q709.1344 101.329094 709.41565 101.62597Q709.7125 101.922844 709.7125 102.34472Q709.7125 102.735344 709.4 103.016594Q708.9313 103.46972 707.5094 103.860344Q706.10315 104.25097 705.1344 104.25097Q703.275 104.25097 702.3375 103.43847Q701.4 102.62597 701.4 101.454094L701.4 97.06347L700.6813 97.06347Q699.9625 97.06347 699.65 96.78222Q699.35315 96.50097 699.35315 96.047844Q699.35315 95.610344 699.65 95.329094Q699.9625 95.047844 700.6813 95.047844L701.4 95.047844L701.4 93.25097Q701.4 92.53222 701.6813 92.21972Q701.9625 91.90722 702.41565 91.90722Q702.85315 91.90722 703.1344 92.21972Q703.41565 92.53222 703.41565 93.25097L703.41565 95.047844L707.10315 95.047844Q707.8375 95.047844 708.1344 95.329094Q708.4469 95.610344 708.4469 96.06347Q708.4469 96.50097 708.1344 96.78222Q707.8375 97.06347 707.10315 97.06347L703.41565 97.06347ZM716.6188 91.25097L716.6188 93.37597L714.2438 93.37597L714.2438 91.25097L716.6188 91.25097ZM716.9 95.047844L716.9 101.922844L719.29065 101.922844Q720.025 101.922844 720.3219 102.204094Q720.6344 102.46972 720.6344 102.922844Q720.6344 103.360344 720.3219 103.641594Q720.025 103.922844 719.29065 103.922844L712.4938 103.922844Q711.7594 103.922844 711.4469 103.641594Q711.15 103.360344 711.15 102.922844Q711.15 102.46972 711.4469 102.204094Q711.7594 101.922844 712.4938 101.922844L714.8844 101.922844L714.8844 97.06347L713.275 97.06347Q712.5719 97.06347 712.2594 96.78222Q711.9469 96.50097 711.9469 96.047844Q711.9469 95.610344 712.2438 95.329094Q712.5563 95.047844 713.275 95.047844L716.9 95.047844Z" fill-rule="nonzero"/><path fill="#9e9e9e" d="M668.91565 116.96971L668.91565 127.92284L670.9469 127.92284Q671.66565 127.92284 671.9625 128.20409Q672.275 128.46971 672.275 128.92284Q672.275 129.36034 671.9625 129.64159Q671.66565 129.92284 670.9469 129.92284L664.9 129.92284Q664.1813 129.92284 663.8688 129.64159Q663.5563 129.36034 663.5563 128.92284Q663.5563 128.46971 663.8688 128.20409Q664.1813 127.92284 664.9 127.92284L666.91565 127.92284L666.91565 119.56346L665.1344 120.03221Q664.6969 120.15721 664.4938 120.15721Q664.10315 120.15721 663.8219 119.86034Q663.5563 119.54784 663.5563 119.11034Q663.5563 118.70409 663.7594 118.48534Q663.9625 118.25096 664.6188 118.07909L668.91565 116.96971ZM682.8375 117.28221L682.8375 125.11034Q683.47815 125.11034 683.775 125.39159Q684.0719 125.67284 684.0719 126.11034Q684.0719 126.54784 683.7594 126.84471Q683.4625 127.12596 682.8375 127.12596L682.8375 127.92284Q683.47815 127.92284 683.775 128.20409Q684.0719 128.48534 684.0719 128.92284Q684.0719 129.36034 683.7594 129.64159Q683.4625 129.92284 682.7438 129.92284L680.0563 129.92284Q679.3375 129.92284 679.025 129.64159Q678.7125 129.36034 678.7125 128.92284Q678.7125 128.46971 679.025 128.20409Q679.3375 127.92284 680.0563 127.92284L680.8375 127.92284L680.8375 127.12596L675.4 127.12596L675.4 125.45409L680.1969 117.28221L682.8375 117.28221ZM680.8375 125.11034L680.8375 120.18846L677.9313 125.11034L680.8375 125.11034ZM693.4313 128.92284Q693.4313 129.48534 693.025 129.87596Q692.6344 130.25096 691.9313 130.25096Q691.22815 130.25096 690.8219 129.87596Q690.41565 129.48534 690.41565 128.92284Q690.41565 128.34471 690.8219 127.96971Q691.22815 127.59471 691.9313 127.59471Q692.6344 127.59471 693.025 127.96971Q693.4313 128.34471 693.4313 128.92284ZM706.7594 123.23534Q707.65 123.84471 708.0875 124.64159Q708.525 125.42284 708.525 126.42284Q708.525 127.48534 707.9469 128.39159Q707.3688 129.28221 706.2594 129.75096Q705.15 130.21971 703.3688 130.21971Q701.04065 130.21971 699.8688 129.48534Q699.2125 129.07909 699.2125 128.51659Q699.2125 128.07909 699.4938 127.78221Q699.79065 127.48534 700.2125 127.48534Q700.4938 127.48534 700.79065 127.68846Q701.22815 127.98534 701.60315 128.07909Q702.1813 128.21971 703.2125 128.21971Q704.9625 128.21971 705.7438 127.76659Q706.525 127.29784 706.525 126.46971Q706.525 125.86034 706.0719 125.29784Q705.6188 124.71971 704.85315 124.40721Q704.41565 124.23534 703.3688 124.15721Q702.8688 124.12596 702.60315 123.86034Q702.3375 123.57909 702.3375 123.15721Q702.3375 122.73534 702.6188 122.43846Q702.91565 122.14159 703.3688 122.14159Q704.3688 122.14159 704.4313 122.14159Q704.8219 122.09471 705.2125 121.89159Q705.60315 121.67284 705.8375 121.29784Q706.0875 120.92284 706.0875 120.51659Q706.0875 119.87596 705.525 119.42284Q704.9625 118.95409 703.8375 118.95409Q702.4 118.95409 701.6344 119.79784Q701.4 120.03221 701.275 120.11034Q701.0719 120.21971 700.8063 120.21971Q700.4 120.21971 700.10315 119.92284Q699.8219 119.62596 699.8219 119.20409Q699.8219 118.53221 700.7125 117.89159Q702.025 116.96971 703.97815 116.96971Q705.8375 116.96971 706.9625 118.03221Q708.0875 119.07909 708.0875 120.56346Q708.0875 121.32909 707.7438 122.00096Q707.41565 122.67284 706.7594 123.23534ZM717.4469 120.20409Q717.4469 121.37596 716.6188 122.20409Q715.79065 123.03221 714.6188 123.03221Q713.4469 123.03221 712.6188 122.20409Q711.79065 121.37596 711.79065 120.20409Q711.79065 119.03221 712.6188 118.20409Q713.4469 117.37596 714.6188 117.37596Q715.79065 117.37596 716.6188 118.20409Q717.4469 119.01659 717.4469 120.20409ZM716.2125 120.20409Q716.2125 119.54784 715.7438 119.07909Q715.275 118.61034 714.6188 118.61034Q713.9469 118.61034 713.47815 119.07909Q713.025 119.54784 713.025 120.20409Q713.025 120.86034 713.4938 121.32909Q713.9625 121.79784 714.6188 121.79784Q715.275 121.79784 715.7438 121.32909Q716.2125 120.86034 716.2125 120.20409ZM719.8063 123.18846L712.41565 125.57909Q712.15 125.65721 712.025 125.65721Q711.79065 125.65721 711.6188 125.48534Q711.4469 125.29784 711.4469 125.01659Q711.4469 124.79784 711.5875 124.64159Q711.6813 124.51659 712.04065 124.39159L719.41565 122.00096Q719.6969 121.90721 719.8219 121.90721Q720.0563 121.90721 720.22815 122.11034Q720.4 122.29784 720.4 122.56346Q720.4 122.76659 720.2594 122.93846Q720.16565 123.06346 719.8063 123.18846ZM719.97815 127.39159Q719.97815 128.56346 719.15 129.39159Q718.3219 130.21971 717.15 130.21971Q715.97815 130.21971 715.15 129.39159Q714.3219 128.54784 714.3219 127.39159Q714.3219 126.21971 715.15 125.39159Q715.97815 124.56346 717.15 124.56346Q718.3219 124.56346 719.15 125.39159Q719.97815 126.20409 719.97815 127.39159ZM718.7438 127.39159Q718.7438 126.73534 718.275 126.26659Q717.8063 125.79784 717.15 125.79784Q716.4938 125.79784 716.025 126.26659Q715.5563 126.73534 715.5563 127.39159Q715.5563 128.04784 716.025 128.51659Q716.4938 128.96971 717.15 128.96971Q717.8063 128.96971 718.275 128.51659Q718.7438 128.04784 718.7438 127.39159Z" fill-rule="nonzero"/><path stroke="#757575" stroke-width="1.0" stroke-linecap="butt" d="M721.9 111.422844L554.95 111.422844L445.23083 111.422844" fill-rule="nonzero"/><path fill="#9e9e9e" d="M447.23083 111.422844C447.23083 110.31827 446.33542 109.422844 445.23083 109.422844C444.12628 109.422844 443.23083 110.31827 443.23083 111.422844C443.23083 112.52741 444.12628 113.422844 445.23083 113.422844C446.33542 113.422844 447.23083 112.52741 447.23083 111.422844" fill-rule="nonzero"/><path fill="#000000" d="M30.115625 65.6L29.38125 65.6L25.146875 58.44375L25.146875 65.02187L26.209375 65.02187Q26.4125 65.02187 26.50625 65.1Q26.6 65.17812 26.6 65.31875Q26.6 65.42812 26.50625 65.52187Q26.4125 65.6 26.209375 65.6L24.084375 65.6Q23.88125 65.6 23.7875 65.52187Q23.709375 65.42812 23.709375 65.31875Q23.709375 65.17812 23.7875 65.1Q23.88125 65.02187 24.084375 65.02187L24.56875 65.02187L24.56875 58.178123L23.803125 58.178123Q23.6 58.178123 23.50625 58.1Q23.4125 58.021873 23.4125 57.88125Q23.4125 57.75625 23.50625 57.678123Q23.6 57.6 23.803125 57.6L25.303125 57.6L29.5375 64.77187L29.5375 58.178123L28.475 58.178123Q28.271875 58.178123 28.178125 58.1Q28.1 58.021873 28.1 57.88125Q28.1 57.75625 28.178125 57.678123Q28.271875 57.6 28.475 57.6L30.6 57.6Q30.803125 57.6 30.88125 57.678123Q30.975 57.75625 30.975 57.88125Q30.975 58.021873 30.88125 58.1Q30.803125 58.178123 30.6 58.178123L30.115625 58.178123L30.115625 65.6ZM38.428123 60.85L32.178123 60.85Q31.975 60.85 31.88125 60.771873Q31.7875 60.678123 31.7875 60.553123Q31.7875 60.428123 31.88125 60.35Q31.975 60.271873 32.178123 60.271873L38.428123 60.271873Q38.646873 60.271873 38.725 60.35Q38.81875 60.428123 38.81875 60.56875Q38.81875 60.678123 38.725 60.771873Q38.646873 60.85 38.428123 60.85ZM38.428123 62.9125L32.178123 62.9125Q31.975 62.9125 31.88125 62.834373Q31.7875 62.75625 31.7875 62.615623Q31.7875 62.490623 31.88125 62.4125Q31.975 62.334373 32.178123 62.334373L38.428123 62.334373Q38.646873 62.334373 38.725 62.4125Q38.81875 62.490623 38.81875 62.615623Q38.81875 62.75625 38.725 62.834373Q38.646873 62.9125 38.428123 62.9125ZM40.834373 65.02187L45.240623 65.02187L45.240623 64.80312Q45.240623 64.6 45.31875 64.50625Q45.396873 64.4125 45.5375 64.4125Q45.6625 64.4125 45.740623 64.50625Q45.81875 64.6 45.81875 64.80312L45.81875 65.6L40.271873 65.6L40.271873 64.75625Q42.021873 63.178123 43.678123 61.553123Q44.44375 60.7875 44.725 60.44375Q45.021873 60.084373 45.115623 59.81875Q45.225 59.5375 45.225 59.271873Q45.225 58.5375 44.63125 57.975Q44.0375 57.396873 43.209373 57.396873Q42.44375 57.396873 41.865623 57.834373Q41.2875 58.25625 41.115623 58.896873Q41.06875 59.053123 41.021873 59.1Q40.928123 59.178123 40.81875 59.178123Q40.709373 59.178123 40.63125 59.1Q40.553123 59.021873 40.553123 58.9125Q40.553123 58.584373 40.9125 58.021873Q41.271873 57.459373 41.896873 57.146873Q42.5375 56.81875 43.19375 56.81875Q44.271873 56.81875 45.0375 57.56875Q45.81875 58.303123 45.81875 59.25625Q45.81875 59.646873 45.678123 59.975Q45.553123 60.303123 45.240623 60.709373Q44.928123 61.1 44.13125 61.88125Q42.1 63.88125 40.834373 64.99062L40.834373 65.02187ZM52.475 61.146873Q53.19375 61.490623 53.553123 62.06875Q53.928123 62.646873 53.928123 63.303123Q53.928123 64.31875 53.1625 65.06875Q52.396873 65.80312 51.303123 65.80312Q50.209373 65.80312 49.44375 65.06875Q48.678123 64.31875 48.678123 63.303123Q48.678123 62.646873 49.0375 62.084373Q49.4125 61.50625 50.13125 61.146873Q49.50625 60.7875 49.225 60.396873Q48.81875 59.85 48.81875 59.178123Q48.81875 58.225 49.5375 57.521873Q50.271873 56.81875 51.303123 56.81875Q52.334373 56.81875 53.053123 57.521873Q53.7875 58.225 53.7875 59.178123Q53.7875 59.85 53.396873 60.396873Q53.115623 60.7875 52.475 61.146873ZM53.19375 59.19375Q53.19375 58.459373 52.646873 57.928123Q52.1 57.396873 51.303123 57.396873Q50.50625 57.396873 49.94375 57.928123Q49.396873 58.459373 49.396873 59.19375Q49.396873 59.85 49.94375 60.365623Q50.490623 60.865623 51.303123 60.865623Q52.115623 60.865623 52.646873 60.365623Q53.19375 59.85 53.19375 59.19375ZM53.35 63.303123Q53.35 62.553123 52.75625 61.990623Q52.178123 61.428123 51.303123 61.428123Q50.428123 61.428123 49.834373 61.990623Q49.25625 62.553123 49.25625 63.303123Q49.25625 64.08437 49.85 64.6625Q50.44375 65.225 51.303123 65.225Q52.178123 65.225 52.75625 64.6625Q53.35 64.08437 53.35 63.303123ZM61.94375 60.6L61.94375 62.021873Q61.94375 63.88125 61.053123 64.95937Q60.365623 65.80312 59.31875 65.80312Q58.803123 65.80312 58.35 65.6Q57.9125 65.39687 57.6 65.0375Q57.396873 64.81875 57.1625 64.31875Q56.928123 63.81875 56.81875 63.396873Q56.6625 62.803123 56.6625 62.021873L56.6625 60.6Q56.6625 58.740623 57.553123 57.6625Q58.240623 56.81875 59.2875 56.81875Q59.803123 56.81875 60.240623 57.021873Q60.69375 57.225 61.00625 57.584373Q61.209373 57.81875 61.44375 58.31875Q61.678123 58.81875 61.7875 59.225Q61.94375 59.803123 61.94375 60.6ZM61.365623 60.678123Q61.365623 59.865623 61.13125 59.1625Q60.896873 58.459373 60.615623 58.053123Q60.44375 57.803123 60.178123 57.63125Q59.7875 57.396873 59.303123 57.396873Q58.334373 57.396873 57.7875 58.38125Q57.240623 59.365623 57.240623 60.678123L57.240623 61.94375Q57.240623 62.75625 57.459373 63.459373Q57.69375 64.1625 57.990623 64.58437Q58.1625 64.81875 58.428123 64.99062Q58.81875 65.225 59.31875 65.225Q60.271873 65.225 60.81875 64.24062Q61.365623 63.25625 61.365623 61.94375L61.365623 60.678123Z" fill-rule="nonzero"/><path fill="#000000" d="M26.44375 35.63125L26.44375 39.271873L27.959375 39.271873Q28.25625 39.271873 28.38125 39.396873Q28.50625 39.50625 28.50625 39.69375Q28.50625 39.865623 28.38125 39.990623Q28.25625 40.1 27.959375 40.1L24.521875 40.1Q24.225 40.1 24.1 39.990623Q23.975 39.865623 23.975 39.69375Q23.975 39.50625 24.1 39.396873Q24.225 39.271873 24.521875 39.271873L25.615625 39.271873L25.615625 29.490623L24.521875 29.490623Q24.225 29.490623 24.1 29.381248Q23.975 29.271873 23.975 29.084373Q23.975 28.896873 24.1 28.787498Q24.225 28.678123 24.521875 28.678123L27.959375 28.678123Q28.25625 28.678123 28.38125 28.787498Q28.50625 28.896873 28.50625 29.084373Q28.50625 29.271873 28.38125 29.381248Q28.25625 29.490623 27.959375 29.490623L26.44375 29.490623L26.44375 34.5375L32.1 29.490623L31.209375 29.490623Q30.896875 29.490623 30.771875 29.381248Q30.646875 29.271873 30.646875 29.084373Q30.646875 28.896873 30.771875 28.787498Q30.896875 28.678123 31.209375 28.678123L33.615623 28.678123Q33.9125 28.678123 34.0375 28.787498Q34.1625 28.896873 34.1625 29.084373Q34.1625 29.271873 34.0375 29.381248Q33.9125 29.490623 33.615623 29.490623L33.2875 29.490623L28.771875 33.521873Q29.7875 33.94375 30.44375 34.553123Q31.115625 35.1625 31.725 36.303123Q32.06875 36.928123 33.00625 39.271873L34.0375 39.271873Q34.334373 39.271873 34.459373 39.396873Q34.6 39.50625 34.6 39.69375Q34.6 39.865623 34.459373 39.990623Q34.334373 40.1 34.0375 40.1L32.459373 40.1Q31.1625 36.56875 30.2875 35.56875Q29.4125 34.553123 28.084375 34.146873L26.44375 35.63125ZM41.521873 27.849998L41.521873 39.271873L44.740623 39.271873Q45.0375 39.271873 45.1625 39.396873Q45.303123 39.50625 45.303123 39.69375Q45.303123 39.865623 45.1625 39.990623Q45.0375 40.1 44.740623 40.1L37.475 40.1Q37.178123 40.1 37.053123 39.990623Q36.928123 39.865623 36.928123 39.69375Q36.928123 39.50625 37.053123 39.396873Q37.178123 39.271873 37.475 39.271873L40.69375 39.271873L40.69375 28.678123L38.334373 28.678123Q38.0375 28.678123 37.896873 28.568748Q37.771873 28.443748 37.771873 28.256248Q37.771873 28.084373 37.896873 27.974998Q38.0375 27.849998 38.334373 27.849998L41.521873 27.849998ZM53.50625 27.428123L53.50625 29.553123L52.303123 29.553123L52.303123 27.428123L53.50625 27.428123ZM53.5375 31.646873L53.5375 39.271873L56.75625 39.271873Q57.06875 39.271873 57.19375 39.396873Q57.31875 39.50625 57.31875 39.69375Q57.31875 39.865623 57.19375 39.990623Q57.06875 40.1 56.75625 40.1L49.490623 40.1Q49.19375 40.1 49.06875 39.990623Q48.94375 39.865623 48.94375 39.69375Q48.94375 39.50625 49.06875 39.396873Q49.19375 39.271873 49.490623 39.271873L52.709373 39.271873L52.709373 32.475L50.31875 32.475Q50.0375 32.475 49.896873 32.365623Q49.771873 32.240623 49.771873 32.06875Q49.771873 31.881248 49.896873 31.771873Q50.021873 31.646873 50.31875 31.646873L53.5375 31.646873ZM61.365623 31.646873L61.365623 32.475Q62.4125 31.349998 63.459373 31.349998Q64.1 31.349998 64.56875 31.693748Q65.05312 32.021873 65.38125 32.709373Q65.92812 32.021873 66.49062 31.693748Q67.05312 31.349998 67.61562 31.349998Q68.50625 31.349998 69.0375 31.928123Q69.725 32.6625 69.725 33.553123L69.725 39.271873L70.4125 39.271873Q70.70937 39.271873 70.83437 39.396873Q70.95937 39.50625 70.95937 39.69375Q70.95937 39.865623 70.83437 39.990623Q70.70937 40.1 70.4125 40.1L68.9125 40.1L68.9125 33.63125Q68.9125 33.00625 68.52187 32.6Q68.14687 32.178123 67.64687 32.178123Q67.19375 32.178123 66.69375 32.521873Q66.19375 32.85 65.56875 33.834373L65.56875 39.271873L66.25625 39.271873Q66.5375 39.271873 66.6625 39.396873Q66.80312 39.50625 66.80312 39.69375Q66.80312 39.865623 66.6625 39.990623Q66.5375 40.1 66.25625 40.1L64.74062 40.1L64.74062 33.678123Q64.74062 33.021873 64.35 32.6Q63.959373 32.178123 63.490623 32.178123Q63.053123 32.178123 62.615623 32.459373Q62.021873 32.865623 61.365623 33.834373L61.365623 39.271873L62.053123 39.271873Q62.35 39.271873 62.475 39.396873Q62.6 39.50625 62.6 39.69375Q62.6 39.865623 62.475 39.990623Q62.35 40.1 62.053123 40.1L59.85 40.1Q59.553123 40.1 59.428123 39.990623Q59.303123 39.865623 59.303123 39.69375Q59.303123 39.50625 59.428123 39.396873Q59.553123 39.271873 59.85 39.271873L60.553123 39.271873L60.553123 32.475L59.85 32.475Q59.553123 32.475 59.428123 32.365623Q59.303123 32.240623 59.303123 32.053123Q59.303123 31.881248 59.428123 31.771873Q59.553123 31.646873 59.85 31.646873L61.365623 31.646873ZM79.45937 40.1L79.45937 38.9125Q77.67812 40.428123 75.64687 40.428123Q74.1625 40.428123 73.33437 39.678123Q72.50625 38.928123 72.50625 37.85Q72.50625 36.646873 73.6 35.771873Q74.69375 34.88125 76.7875 34.88125Q77.36562 34.88125 78.02187 34.959373Q78.69375 35.021873 79.45937 35.178123L79.45937 33.85Q79.45937 33.178123 78.83437 32.678123Q78.20937 32.178123 76.95937 32.178123Q76.00625 32.178123 74.27187 32.740623Q73.95937 32.834373 73.88125 32.834373Q73.725 32.834373 73.6 32.725Q73.49062 32.6 73.49062 32.428123Q73.49062 32.25625 73.58437 32.1625Q73.725 32.00625 74.69375 31.756248Q76.225 31.349998 77.00625 31.349998Q78.55312 31.349998 79.4125 32.115623Q80.2875 32.88125 80.2875 33.85L80.2875 39.271873L81.38125 39.271873Q81.69375 39.271873 81.81875 39.396873Q81.94375 39.50625 81.94375 39.69375Q81.94375 39.865623 81.81875 39.990623Q81.69375 40.1 81.38125 40.1L79.45937 40.1ZM79.45937 36.021873Q78.88125 35.85 78.24062 35.771873Q77.6 35.69375 76.88125 35.69375Q75.1 35.69375 74.08437 36.459373Q73.33437 37.0375 73.33437 37.85Q73.33437 38.584373 73.9125 39.1Q74.49062 39.6 75.6 39.6Q76.6625 39.6 77.56875 39.178123Q78.49062 38.75625 79.45937 37.81875L79.45937 36.021873ZM87.4125 31.646873L91.86562 31.646873Q92.1625 31.646873 92.2875 31.771873Q92.4125 31.881248 92.4125 32.06875Q92.4125 32.240623 92.2875 32.365623Q92.1625 32.475 91.86562 32.475L87.4125 32.475L87.4125 37.928123Q87.4125 38.646873 87.975 39.13125Q88.55312 39.6 89.6625 39.6Q90.49062 39.6 91.45937 39.35Q92.42812 39.1 92.95937 38.7875Q93.1625 38.6625 93.2875 38.6625Q93.44375 38.6625 93.55312 38.7875Q93.67812 38.9125 93.67812 39.06875Q93.67812 39.225 93.55312 39.35Q93.24062 39.6625 92.02187 40.053123Q90.81875 40.428123 89.725 40.428123Q88.2875 40.428123 87.42812 39.75625Q86.58437 39.06875 86.58437 37.928123L86.58437 32.475L85.06875 32.475Q84.7875 32.475 84.64687 32.365623Q84.52187 32.240623 84.52187 32.053123Q84.52187 31.881248 84.64687 31.771873Q84.7875 31.646873 85.06875 31.646873L86.58437 31.646873L86.58437 29.224998Q86.58437 28.928123 86.69375 28.803123Q86.81875 28.678123 86.99062 28.678123Q87.17812 28.678123 87.2875 28.803123Q87.4125 28.928123 87.4125 29.224998L87.4125 31.646873ZM101.50625 27.428123L101.50625 29.553123L100.30312 29.553123L100.30312 27.428123L101.50625 27.428123ZM101.5375 31.646873L101.5375 39.271873L104.75625 39.271873Q105.06875 39.271873 105.19375 39.396873Q105.31875 39.50625 105.31875 39.69375Q105.31875 39.865623 105.19375 39.990623Q105.06875 40.1 104.75625 40.1L97.49062 40.1Q97.19375 40.1 97.06875 39.990623Q96.94375 39.865623 96.94375 39.69375Q96.94375 39.50625 97.06875 39.396873Q97.19375 39.271873 97.49062 39.271873L100.70937 39.271873L100.70937 32.475L98.31875 32.475Q98.0375 32.475 97.89687 32.365623Q97.77187 32.240623 97.77187 32.06875Q97.77187 31.881248 97.89687 31.771873Q98.02187 31.646873 98.31875 31.646873L101.5375 31.646873ZM116.52187 32.475L116.52187 32.19375Q116.52187 31.896873 116.63125 31.771873Q116.75625 31.646873 116.92812 31.646873Q117.11562 31.646873 117.225 31.771873Q117.35 31.896873 117.35 32.19375L117.35 34.053123Q117.35 34.35 117.225 34.490623Q117.11562 34.615623 116.92812 34.615623Q116.77187 34.615623 116.64687 34.50625Q116.5375 34.38125 116.52187 34.115623Q116.45937 33.428123 115.6 32.803123Q114.75625 32.178123 113.31875 32.178123Q111.49062 32.178123 110.5375 33.31875Q109.58437 34.459373 109.58437 35.94375Q109.58437 37.5375 110.63125 38.56875Q111.67812 39.6 113.33437 39.6Q114.30312 39.6 115.2875 39.25625Q116.2875 38.896873 117.08437 38.115623Q117.2875 37.928123 117.44375 37.928123Q117.61562 37.928123 117.725 38.0375Q117.83437 38.146873 117.83437 38.31875Q117.83437 38.725 116.85 39.38125Q115.25625 40.428123 113.30312 40.428123Q111.31875 40.428123 110.0375 39.1625Q108.77187 37.896873 108.77187 35.94375Q108.77187 33.959373 110.06875 32.6625Q111.38125 31.349998 113.36562 31.349998Q115.24062 31.349998 116.52187 32.475ZM123.44375 36.44375L123.44375 40.1L121.50625 40.1Q121.225 40.1 121.08437 39.990623Q120.95937 39.865623 120.95937 39.69375Q120.95937 39.50625 121.08437 39.396873Q121.225 39.271873 121.50625 39.271873L122.61562 39.271873L122.61562 28.678123L121.50625 28.678123Q121.225 28.678123 121.08437 28.568748Q120.95937 28.443748 120.95937 28.256248Q120.95937 28.084373 121.08437 27.974998Q121.225 27.849998 121.50625 27.849998L123.44375 27.849998L123.44375 35.396873L126.92812 32.475L126.50625 32.475Q126.20937 32.475 126.08437 32.365623Q125.95937 32.240623 125.95937 32.06875Q125.95937 31.881248 126.08437 31.771873Q126.20937 31.646873 126.50625 31.646873L129.13126 31.646873Q129.42813 31.646873 129.55313 31.771873Q129.69376 31.881248 129.69376 32.06875Q129.69376 32.240623 129.55313 32.365623Q129.42813 32.475 129.13126 32.475L128.17813 32.475L124.975 35.146873L129.0375 39.271873L129.975 39.271873Q130.2875 39.271873 130.4125 39.396873Q130.5375 39.50625 130.5375 39.69375Q130.5375 39.865623 130.4125 39.990623Q130.2875 40.1 129.975 40.1L127.31875 40.1Q127.0375 40.1 126.89687 39.990623Q126.77187 39.865623 126.77187 39.69375Q126.77187 39.50625 126.89687 39.396873Q127.0375 39.271873 127.31875 39.271873L127.89687 39.271873L124.38125 35.6625L123.44375 36.44375ZM141.5375 36.06875L133.17813 36.06875Q133.39688 37.6625 134.50626 38.63125Q135.63126 39.6 137.2875 39.6Q138.19376 39.6 139.19376 39.303123Q140.20938 38.990623 140.85 38.490623Q141.0375 38.35 141.1625 38.35Q141.31876 38.35 141.42813 38.475Q141.55313 38.6 141.55313 38.75625Q141.55313 38.928123 141.39688 39.084373Q140.92813 39.56875 139.725 40.00625Q138.5375 40.428123 137.2875 40.428123Q135.17813 40.428123 133.75626 39.053123Q132.35 37.6625 132.35 35.69375Q132.35 33.9125 133.6625 32.63125Q134.99063 31.349998 136.94376 31.349998Q138.95938 31.349998 140.25626 32.6625Q141.55313 33.975 141.5375 36.06875ZM140.70938 35.240623Q140.45938 33.88125 139.4125 33.0375Q138.38126 32.178123 136.94376 32.178123Q135.52188 32.178123 134.475 33.021873Q133.44376 33.865623 133.19376 35.240623L140.70938 35.240623ZM138.52188 27.943748L136.20938 29.928123Q135.99063 30.131248 135.83438 30.131248Q135.67813 30.131248 135.55313 30.006248Q135.42813 29.881248 135.42813 29.709373Q135.42813 29.615623 135.475 29.537498Q135.52188 29.459373 135.67813 29.303123L137.975 27.318748Q138.19376 27.115623 138.35 27.115623Q138.52188 27.115623 138.64688 27.240623Q138.77188 27.365623 138.77188 27.537498Q138.77188 27.631248 138.725 27.724998Q138.67813 27.803123 138.52188 27.943748ZM163.81876 32.178123Q163.81876 31.896873 163.92813 31.771873Q164.05313 31.646873 164.225 31.646873Q164.4125 31.646873 164.52188 31.771873Q164.64688 31.896873 164.64688 32.19375L164.64688 33.6Q164.64688 33.896873 164.52188 34.021873Q164.4125 34.146873 164.225 34.146873Q164.05313 34.146873 163.94376 34.053123Q163.83438 33.94375 163.81876 33.69375Q163.75626 33.1 163.20938 32.725Q162.4125 32.178123 161.08438 32.178123Q159.70938 32.178123 158.94376 32.740623Q158.36563 33.1625 158.36563 33.678123Q158.36563 34.25625 159.05313 34.646873Q159.52188 34.928123 160.83438 35.06875Q162.5375 35.25625 163.20938 35.490623Q164.14688 35.834373 164.61563 36.44375Q165.08438 37.0375 165.08438 37.740623Q165.08438 38.7875 164.06876 39.615623Q163.06876 40.428123 161.13126 40.428123Q159.17813 40.428123 157.94376 39.428123Q157.94376 39.771873 157.89688 39.865623Q157.86563 39.959373 157.75626 40.0375Q157.6625 40.1 157.5375 40.1Q157.35 40.1 157.225 39.975Q157.11563 39.85 157.11563 39.553123L157.11563 37.865623Q157.11563 37.56875 157.225 37.44375Q157.35 37.31875 157.5375 37.31875Q157.70938 37.31875 157.83438 37.44375Q157.95938 37.553123 157.95938 37.771873Q157.95938 38.209373 158.17813 38.521873Q158.52188 38.990623 159.25626 39.303123Q160.00626 39.6 161.1 39.6Q162.69376 39.6 163.475 39.00625Q164.25626 38.4125 164.25626 37.740623Q164.25626 36.990623 163.475 36.521873Q162.6625 36.06875 161.13126 35.9125Q159.61563 35.75625 158.94376 35.50625Q158.2875 35.240623 157.9125 34.740623Q157.5375 34.225 157.5375 33.646873Q157.5375 32.584373 158.56876 31.974998Q159.61563 31.349998 161.05313 31.349998Q162.74063 31.349998 163.81876 32.178123ZM171.4125 31.646873L175.86563 31.646873Q176.1625 31.646873 176.2875 31.771873Q176.4125 31.881248 176.4125 32.06875Q176.4125 32.240623 176.2875 32.365623Q176.1625 32.475 175.86563 32.475L171.4125 32.475L171.4125 37.928123Q171.4125 38.646873 171.975 39.13125Q172.55313 39.6 173.6625 39.6Q174.49063 39.6 175.45938 39.35Q176.42813 39.1 176.95938 38.7875Q177.1625 38.6625 177.2875 38.6625Q177.44376 38.6625 177.55313 38.7875Q177.67813 38.9125 177.67813 39.06875Q177.67813 39.225 177.55313 39.35Q177.24063 39.6625 176.02188 40.053123Q174.81876 40.428123 173.725 40.428123Q172.2875 40.428123 171.42813 39.75625Q170.58438 39.06875 170.58438 37.928123L170.58438 32.475L169.06876 32.475Q168.7875 32.475 168.64688 32.365623Q168.52188 32.240623 168.52188 32.053123Q168.52188 31.881248 168.64688 31.771873Q168.7875 31.646873 169.06876 31.646873L170.58438 31.646873L170.58438 29.224998Q170.58438 28.928123 170.69376 28.803123Q170.81876 28.678123 170.99063 28.678123Q171.17813 28.678123 171.2875 28.803123Q171.4125 28.928123 171.4125 29.224998L171.4125 31.646873ZM184.11563 31.646873L184.11563 33.709373Q185.725 32.271873 186.52188 31.865623Q187.31876 31.443748 187.99063 31.443748Q188.725 31.443748 189.35 31.943748Q189.975 32.428123 189.975 32.678123Q189.975 32.865623 189.85 32.990623Q189.74063 33.1 189.55313 33.1Q189.45938 33.1 189.38126 33.06875Q189.31876 33.0375 189.13126 32.85Q188.7875 32.50625 188.5375 32.38125Q188.2875 32.25625 188.0375 32.25625Q187.50626 32.25625 186.74063 32.69375Q185.99063 33.115623 184.11563 34.7875L184.11563 39.271873L187.75626 39.271873Q188.05313 39.271873 188.17813 39.396873Q188.30313 39.50625 188.30313 39.69375Q188.30313 39.865623 188.17813 39.990623Q188.05313 40.1 187.75626 40.1L181.31876 40.1Q181.02188 40.1 180.89688 39.990623Q180.77188 39.88125 180.77188 39.69375Q180.77188 39.5375 180.89688 39.428123Q181.02188 39.303123 181.31876 39.303123L183.30313 39.303123L183.30313 32.475L181.7875 32.475Q181.49063 32.475 181.36563 32.365623Q181.24063 32.240623 181.24063 32.053123Q181.24063 31.881248 181.36563 31.771873Q181.49063 31.646873 181.7875 31.646873L184.11563 31.646873ZM199.45938 40.1L199.45938 38.9125Q197.67813 40.428123 195.64688 40.428123Q194.1625 40.428123 193.33438 39.678123Q192.50626 38.928123 192.50626 37.85Q192.50626 36.646873 193.6 35.771873Q194.69376 34.88125 196.7875 34.88125Q197.36563 34.88125 198.02188 34.959373Q198.69376 35.021873 199.45938 35.178123L199.45938 33.85Q199.45938 33.178123 198.83438 32.678123Q198.20938 32.178123 196.95938 32.178123Q196.00626 32.178123 194.27188 32.740623Q193.95938 32.834373 193.88126 32.834373Q193.725 32.834373 193.6 32.725Q193.49063 32.6 193.49063 32.428123Q193.49063 32.25625 193.58438 32.1625Q193.725 32.00625 194.69376 31.756248Q196.225 31.349998 197.00626 31.349998Q198.55313 31.349998 199.4125 32.115623Q200.2875 32.88125 200.2875 33.85L200.2875 39.271873L201.38126 39.271873Q201.69376 39.271873 201.81876 39.396873Q201.94376 39.50625 201.94376 39.69375Q201.94376 39.865623 201.81876 39.990623Q201.69376 40.1 201.38126 40.1L199.45938 40.1ZM199.45938 36.021873Q198.88126 35.85 198.24063 35.771873Q197.6 35.69375 196.88126 35.69375Q195.1 35.69375 194.08438 36.459373Q193.33438 37.0375 193.33438 37.85Q193.33438 38.584373 193.9125 39.1Q194.49063 39.6 195.6 39.6Q196.6625 39.6 197.56876 39.178123Q198.49063 38.75625 199.45938 37.81875L199.45938 36.021873ZM198.52188 27.943748L196.20938 29.928123Q195.99063 30.131248 195.83438 30.131248Q195.67813 30.131248 195.55313 30.006248Q195.42813 29.881248 195.42813 29.709373Q195.42813 29.615623 195.475 29.537498Q195.52188 29.459373 195.67813 29.303123L197.975 27.318748Q198.19376 27.115623 198.35 27.115623Q198.52188 27.115623 198.64688 27.240623Q198.77188 27.365623 198.77188 27.537498Q198.77188 27.631248 198.725 27.724998Q198.67813 27.803123 198.52188 27.943748ZM206.44376 31.646873L206.44376 32.88125Q207.30313 32.00625 207.99063 31.678123Q208.69376 31.349998 209.56876 31.349998Q210.50626 31.349998 211.27188 31.756248Q211.81876 32.0375 212.25626 32.725Q212.70938 33.396873 212.70938 34.115623L212.70938 39.271873L213.39688 39.271873Q213.69376 39.271873 213.81876 39.396873Q213.94376 39.50625 213.94376 39.69375Q213.94376 39.865623 213.81876 39.990623Q213.69376 40.1 213.39688 40.1L211.20938 40.1Q210.89688 40.1 210.77188 39.990623Q210.64688 39.865623 210.64688 39.69375Q210.64688 39.50625 210.77188 39.396873Q210.89688 39.271873 211.20938 39.271873L211.89688 39.271873L211.89688 34.25625Q211.89688 33.38125 211.25626 32.7875Q210.61563 32.178123 209.55313 32.178123Q208.74063 32.178123 208.14688 32.50625Q207.55313 32.834373 206.44376 34.13125L206.44376 39.271873L207.38126 39.271873Q207.67813 39.271873 207.80313 39.396873Q207.92813 39.50625 207.92813 39.69375Q207.92813 39.865623 207.80313 39.990623Q207.67813 40.1 207.38126 40.1L204.70938 40.1Q204.4125 40.1 204.2875 39.990623Q204.1625 39.865623 204.1625 39.69375Q204.1625 39.50625 204.2875 39.396873Q204.4125 39.271873 204.70938 39.271873L205.63126 39.271873L205.63126 32.475L204.94376 32.475Q204.64688 32.475 204.52188 32.365623Q204.39688 32.240623 204.39688 32.053123Q204.39688 31.881248 204.52188 31.771873Q204.64688 31.646873 204.94376 31.646873L206.44376 31.646873ZM219.44376 36.44375L219.44376 40.1L217.50626 40.1Q217.225 40.1 217.08438 39.990623Q216.95938 39.865623 216.95938 39.69375Q216.95938 39.50625 217.08438 39.396873Q217.225 39.271873 217.50626 39.271873L218.61563 39.271873L218.61563 28.678123L217.50626 28.678123Q217.225 28.678123 217.08438 28.568748Q216.95938 28.443748 216.95938 28.256248Q216.95938 28.084373 217.08438 27.974998Q217.225 27.849998 217.50626 27.849998L219.44376 27.849998L219.44376 35.396873L222.92813 32.475L222.50626 32.475Q222.20938 32.475 222.08438 32.365623Q221.95938 32.240623 221.95938 32.06875Q221.95938 31.881248 222.08438 31.771873Q222.20938 31.646873 222.50626 31.646873L225.13126 31.646873Q225.42813 31.646873 225.55313 31.771873Q225.69376 31.881248 225.69376 32.06875Q225.69376 32.240623 225.55313 32.365623Q225.42813 32.475 225.13126 32.475L224.17813 32.475L220.975 35.146873L225.0375 39.271873L225.975 39.271873Q226.2875 39.271873 226.4125 39.396873Q226.5375 39.50625 226.5375 39.69375Q226.5375 39.865623 226.4125 39.990623Q226.2875 40.1 225.975 40.1L223.31876 40.1Q223.0375 40.1 222.89688 39.990623Q222.77188 39.865623 222.77188 39.69375Q222.77188 39.50625 222.89688 39.396873Q223.0375 39.271873 223.31876 39.271873L223.89688 39.271873L220.38126 35.6625L219.44376 36.44375ZM233.1625 40.1L229.35 32.475L229.1 32.475Q228.80313 32.475 228.67813 32.365623Q228.55313 32.240623 228.55313 32.06875Q228.55313 31.928123 228.61563 31.834373Q228.67813 31.724998 228.77188 31.693748Q228.88126 31.646873 229.1 31.646873L231.35 31.646873Q231.64688 31.646873 231.77188 31.771873Q231.89688 31.881248 231.89688 32.06875Q231.89688 32.240623 231.77188 32.365623Q231.64688 32.475 231.35 32.475L230.24063 32.475L233.6 39.19375L236.89688 32.475L235.7875 32.475Q235.50626 32.475 235.36563 32.365623Q235.24063 32.240623 235.24063 32.053123Q235.24063 31.881248 235.36563 31.771873Q235.50626 31.646873 235.7875 31.646873L238.02188 31.646873Q238.33438 31.646873 238.45938 31.771873Q238.58438 31.881248 238.58438 32.06875Q238.58438 32.19375 238.50626 32.303123Q238.42813 32.396873 238.33438 32.44375Q238.24063 32.475 237.7875 32.475L232.58438 43.053123L233.86563 43.053123Q234.1625 43.053123 234.2875 43.1625Q234.4125 43.271873 234.4125 43.459373Q234.4125 43.63125 234.2875 43.740623Q234.1625 43.865623 233.86563 43.865623L229.14688 43.865623Q228.85 43.865623 228.725 43.75625Q228.6 43.646873 228.6 43.459373Q228.6 43.271873 228.725 43.1625Q228.85 43.053123 229.14688 43.053123L231.70938 43.053123L233.1625 40.1Z" fill-rule="nonzero"/></svg>